<?xml version="1.0"?>
<svg xmlns="http://www.w3.org/2000/svg" xmlns:xlink="http://www.w3.org/1999/xlink" xmlns:svgjs="http://svgjs.com/svgjs" version="1.1" width="512" height="512" x="0" y="0" viewBox="0 0 24 24" style="enable-background:new 0 0 512 512" xml:space="preserve" class=""><g><path xmlns="http://www.w3.org/2000/svg" d="m22.25 24h-20.5c-.965 0-1.75-.785-1.75-1.75v-7.5c0-.965.785-1.75 1.75-1.75h20.5c.965 0 1.75.785 1.75 1.75v7.5c0 .965-.785 1.75-1.75 1.75zm-20.5-9.5c-.138 0-.25.112-.25.25v7.5c0 .138.112.25.25.25h20.5c.138 0 .25-.112.25-.25v-7.5c0-.138-.112-.25-.25-.25z" fill="#6e6d7a" data-original="#000000" style="" class=""/><path xmlns="http://www.w3.org/2000/svg" d="m12 24c-.414 0-.75-.336-.75-.75v-4.25c0-.414.336-.75.75-.75s.75.336.75.75v4.25c0 .414-.336.75-.75.75z" fill="#6e6d7a" data-original="#000000" style="" class=""/><path xmlns="http://www.w3.org/2000/svg" d="m23.25 19.5h-22.5c-.414 0-.75-.336-.75-.75s.336-.75.75-.75h22.5c.414 0 .75.336.75.75s-.336.75-.75.75z" fill="#6e6d7a" data-original="#000000" style="" class=""/><path xmlns="http://www.w3.org/2000/svg" d="m6.75 19.5c-.414 0-.75-.336-.75-.75v-5c0-.414.336-.75.75-.75s.75.336.75.75v5c0 .414-.336.75-.75.75z" fill="#6e6d7a" data-original="#000000" style="" class=""/><path xmlns="http://www.w3.org/2000/svg" d="m17.25 19.25c-.414 0-.75-.336-.75-.75v-4.75c0-.414.336-.75.75-.75s.75.336.75.75v4.75c0 .414-.336.75-.75.75z" fill="#6e6d7a" data-original="#000000" style="" class=""/><path xmlns="http://www.w3.org/2000/svg" d="m5.75 11.045c-.414 0-.75-.336-.75-.75 0-3.586 2.899-6.021 3.022-6.124.236-.197.571-.228.84-.078.27.149.421.448.381.753-.002.016-.21 1.79.731 2.856.294.333.684.568 1.163.704-1.741-5.844 1.744-8.185 1.903-8.287.23-.148.524-.16.766-.029s.392.384.392.659c0 2.401 1.119 3.526 2.304 4.716 1.125 1.13 2.399 2.411 2.498 4.752.017.414-.304.764-.718.781-.413.018-.764-.304-.781-.718-.074-1.76-.995-2.686-2.062-3.757-1.009-1.015-2.125-2.136-2.556-4.036-.675 1.132-1.24 3.201.053 6.536.089.23.06.491-.081.695-.14.204-.371.326-.619.326-1.46 0-2.602-.457-3.393-1.358-.565-.643-.852-1.414-.993-2.109-.655.888-1.35 2.192-1.35 3.718 0 .414-.336.75-.75.75z" fill="#6e6d7a" data-original="#000000" style="" class=""/></g></svg>
