<?xml version="1.0"?>
<svg xmlns="http://www.w3.org/2000/svg" xmlns:xlink="http://www.w3.org/1999/xlink" xmlns:svgjs="http://svgjs.com/svgjs" version="1.1" width="512" height="512" x="0" y="0" viewBox="0 0 24 24" style="enable-background:new 0 0 512 512" xml:space="preserve" class=""><g><path xmlns="http://www.w3.org/2000/svg" d="m21.195 15.25h-18.39c-1.135 0-2.055-.92-2.055-2.055v-10.39c0-1.135.92-2.055 2.055-2.055h18.39c1.135 0 2.055.92 2.055 2.055v10.39c0 1.135-.92 2.055-2.055 2.055z" fill="#ffdd00" data-original="#4caf50" style="" class=""/><path xmlns="http://www.w3.org/2000/svg" d="m12 11c-1.654 0-3-1.346-3-3s1.346-3 3-3 3 1.346 3 3-1.346 3-3 3z" fill="#fafafa" data-original="#fafafa" style="" class=""/><path xmlns="http://www.w3.org/2000/svg" d="m18.5 24c-3.29 0-5.5-2.244-5.5-5.583 0-3.138 2.902-6.62 3.026-6.766.212-.252.562-.337.868-.207.303.129.486.442.451.771-.117 1.083-.061 2.855.432 3.403.087.097.159.116.248.116.299 0 .415-.092.481-.172.132-.157.408-.699.121-2.332-.335-1.903-1.696-4.054-1.71-4.076-.166-.259-.156-.594.024-.843s.498-.364.792-.288c.065.016 6.267 1.695 6.267 10.394 0 2.575-1.44 5.583-5.5 5.583z" fill="#ff813f" data-original="#f44336" style="" class=""/><path xmlns="http://www.w3.org/2000/svg" d="m18.5 24c-3.29 0-5.5-2.243-5.5-5.583 0-3.138 2.902-6.62 3.026-6.767.211-.252.561-.338.868-.206.303.13.486.442.451.771-.117 1.083-.061 2.854.432 3.402.087.097.159.116.248.116.299 0 .415-.092.481-.172.132-.157.408-.699.121-2.332-.335-1.903-1.696-4.055-1.71-4.076-.166-.259-.156-.594.024-.843.18-.25.497-.364.792-.287.065.016 6.267 1.695 6.267 10.394 0 2.575-1.44 5.583-5.5 5.583zm-2.638-9.502c-.676 1.131-1.362 2.602-1.362 3.919 0 2.48 1.57 4.083 4 4.083 3.712 0 4-3.125 4-4.083 0-4.418-1.714-6.716-3.164-7.868.321.74.623 1.589.769 2.421.296 1.681.149 2.845-.448 3.557-.271.322-.773.707-1.631.707-.532 0-1.004-.213-1.365-.615-.471-.525-.697-1.328-.799-2.121z" fill="#000000" data-original="#000000" style="" class=""/><path xmlns="http://www.w3.org/2000/svg" d="m11.25 16h-8.5c-1.517 0-2.75-1.233-2.75-2.75v-10.5c0-1.517 1.233-2.75 2.75-2.75h18.5c1.517 0 2.75 1.233 2.75 2.75v6.75c0 .414-.336.75-.75.75s-.75-.336-.75-.75v-6.75c0-.689-.561-1.25-1.25-1.25h-18.5c-.689 0-1.25.561-1.25 1.25v10.5c0 .689.561 1.25 1.25 1.25h8.5c.414 0 .75.336.75.75s-.336.75-.75.75z" fill="#000000" data-original="#000000" style="" class=""/><path xmlns="http://www.w3.org/2000/svg" d="m12 11c-1.654 0-3-1.346-3-3s1.346-3 3-3 3 1.346 3 3-1.346 3-3 3zm0-4.5c-.827 0-1.5.673-1.5 1.5s.673 1.5 1.5 1.5 1.5-.673 1.5-1.5-.673-1.5-1.5-1.5z" fill="#000000" data-original="#000000" style="" class=""/><path xmlns="http://www.w3.org/2000/svg" d="m5.25 4.5h-1.5c-.414 0-.75-.336-.75-.75s.336-.75.75-.75h1.5c.414 0 .75.336.75.75s-.336.75-.75.75z" fill="#000000" data-original="#000000" style="" class=""/></g></svg>
